<?xml version="1.0" encoding="UTF-8"?>
<!DOCTYPE svg PUBLIC "-//W3C//DTD SVG 1.1//EN" "http://www.w3.org/Graphics/SVG/1.1/DTD/svg11.dtd">
<svg xmlns="http://www.w3.org/2000/svg" version="1.1" width="512px" height="512px" style="shape-rendering:geometricPrecision; text-rendering:geometricPrecision; image-rendering:optimizeQuality; fill-rule:evenodd; clip-rule:evenodd" xmlns:xlink="http://www.w3.org/1999/xlink">
<g><path style="opacity:0.999" fill="#fec93b" d="M 432.5,111.5 C 431.667,194.332 431.167,277.332 431,360.5C 427.953,371.541 421.786,380.375 412.5,387C 361.833,412.333 311.167,437.667 260.5,463C 259.207,463.49 257.873,463.657 256.5,463.5C 256.5,345.167 256.5,226.833 256.5,108.5C 297.449,87.5252 338.783,67.3585 380.5,48C 402.493,44.9127 418.66,53.0794 429,72.5C 430.313,76.4204 431.313,80.4204 432,84.5C 432.5,93.4938 432.666,102.494 432.5,111.5 Z"/></g>
<g><path style="opacity:1" fill="#fedc86" d="M 255.5,108.5 C 255.833,227.001 255.5,345.335 254.5,463.5C 252.436,463.313 250.436,462.813 248.5,462C 199.833,437.667 151.167,413.333 102.5,389C 89.1734,381.873 81.6734,370.707 80,355.5C 79.5,274.167 79.3333,192.834 79.5,111.5C 79.3335,101.494 79.5002,91.4944 80,81.5C 83.8391,65.6268 93.3391,54.7934 108.5,49C 118.263,46.7833 127.93,47.1167 137.5,50C 176.732,69.7827 216.065,89.2827 255.5,108.5 Z"/></g>
<g><path style="opacity:1" fill="#fecc4b" d="M 255.5,108.5 C 255.833,108.5 256.167,108.5 256.5,108.5C 256.5,226.833 256.5,345.167 256.5,463.5C 256.5,463.833 256.5,464.167 256.5,464.5C 255.833,464.5 255.167,464.5 254.5,464.5C 254.5,464.167 254.5,463.833 254.5,463.5C 255.5,345.335 255.833,227.001 255.5,108.5 Z"/></g>
<g><path style="opacity:0.996" fill="#ffc83c" d="M 79.5,111.5 C 79.3333,192.834 79.5,274.167 80,355.5C 81.6734,370.707 89.1734,381.873 102.5,389C 151.167,413.333 199.833,437.667 248.5,462C 250.436,462.813 252.436,463.313 254.5,463.5C 254.5,463.833 254.5,464.167 254.5,464.5C 187.478,464.969 120.478,464.469 53.5,463C 33.2581,457.758 20.7581,444.924 16,424.5C 15.3333,333.167 15.3333,241.833 16,150.5C 20.8461,129.654 33.6794,116.821 54.5,112C 62.8267,111.5 71.16,111.334 79.5,111.5 Z"/></g>
<g><path style="opacity:0.993" fill="#e1a303" d="M 432.5,111.5 C 460.23,106.782 480.397,116.782 493,141.5C 493.822,143.788 494.489,146.122 495,148.5C 496.652,239.137 496.985,329.803 496,420.5C 492.44,443.152 479.606,457.318 457.5,463C 390.522,464.469 323.522,464.969 256.5,464.5C 256.5,464.167 256.5,463.833 256.5,463.5C 257.873,463.657 259.207,463.49 260.5,463C 311.167,437.667 361.833,412.333 412.5,387C 421.786,380.375 427.953,371.541 431,360.5C 431.167,277.332 431.667,194.332 432.5,111.5 Z"/></g>
</svg>
